<svg version="1.1" id="Layer_1" xmlns="http://www.w3.org/2000/svg" xmlns:xlink="http://www.w3.org/1999/xlink" x="0px" y="0px"
	 width="100%" viewBox="0 0 496 496" enable-background="new 0 0 496 496" xml:space="preserve">
<path fill="#000000" opacity="1.000000" stroke="none" 
	d="
M268.016602,254.981461 
	C267.670319,256.918274 266.481995,258.155609 264.898804,259.275513 
	C260.297455,262.530273 259.175903,266.197662 260.649323,271.958984 
	C261.915741,276.910980 265.599518,278.741943 270.140900,279.558563 
	C271.987976,279.890656 274.085907,279.259247 275.586334,281.894226 
	C258.053436,281.894226 240.520569,281.894226 222.169022,281.894226 
	C224.027145,279.069885 226.026123,279.844116 227.661392,279.661957 
	C235.415970,278.798096 239.039841,275.366577 238.530914,267.601105 
	C237.919067,258.264954 238.798904,248.987946 238.599808,239.687332 
	C238.563721,238.001221 239.236282,235.626892 236.453049,235.442734 
	C234.075150,235.285370 232.813705,236.627045 231.610031,238.860336 
	C229.540390,242.700302 226.668808,246.108047 223.647690,250.385498 
	C221.879181,246.370621 224.174179,244.531265 225.511963,242.545410 
	C229.992844,235.893845 230.141296,235.842270 225.285339,229.388397 
	C224.322433,228.108627 223.826080,226.978836 224.059830,225.683075 
	C221.618576,224.566177 219.499115,225.798248 216.704788,225.687958 
	C219.164383,221.984100 222.303253,220.001526 225.279648,217.391296 
	C224.508377,216.269073 223.604172,214.953400 222.515488,213.369324 
	C229.948456,211.978012 225.411728,207.555756 224.313828,205.144745 
	C222.015900,200.098434 218.378677,203.591141 215.358978,204.272003 
	C214.906296,206.424408 217.142624,206.553391 217.182053,208.271179 
	C212.529419,208.040726 210.081970,210.364136 209.443771,214.733917 
	C211.826996,216.719543 215.375198,214.130325 216.788422,217.496277 
	C214.728775,219.573929 211.450241,215.338333 209.798431,218.825943 
	C209.727921,221.173233 212.312393,220.195801 213.065964,221.798599 
	C212.650467,222.175842 212.258179,222.803177 211.722855,222.969131 
	C209.818573,223.559464 207.865417,223.926712 206.318497,225.380630 
	C205.073792,226.550507 204.508514,227.770508 205.441925,229.337051 
	C206.288834,230.758392 207.580200,230.670547 208.958633,230.282928 
	C210.512573,229.845947 211.973969,228.896759 214.071075,229.266068 
	C213.154068,232.597305 209.144073,231.109802 207.429153,234.717041 
	C213.056702,236.228943 216.632843,232.387131 221.035080,230.552170 
	C220.383163,234.354172 217.621033,235.319092 214.724304,236.110870 
	C212.593048,236.693405 210.395172,237.202667 210.293854,240.027527 
	C210.206482,242.463699 211.436050,244.218338 213.552094,245.195953 
	C215.520004,246.105133 217.126694,247.297272 217.957321,249.515076 
	C214.176331,248.088852 210.603714,246.556473 208.670471,242.384354 
	C206.655853,238.036682 206.118134,233.095734 203.108719,229.144302 
	C201.889832,227.543900 202.615097,225.801758 204.055481,224.737442 
	C206.859787,222.665298 207.846252,220.458191 207.131851,216.716949 
	C206.167480,211.666641 212.217804,202.840729 217.234528,201.942429 
	C220.339691,201.386414 220.849014,196.816574 225.349686,198.584290 
	C222.456360,196.150314 220.280731,196.813004 218.201569,197.968964 
	C215.168060,199.655457 213.108261,198.777390 211.869980,195.716888 
	C208.776352,188.070572 207.827026,186.197693 216.690231,181.529129 
	C216.636398,179.177368 212.937180,179.089249 213.385605,176.526260 
	C213.719223,174.619553 213.648163,172.512283 215.281250,170.956863 
	C218.302872,172.774261 215.632263,174.766357 215.590103,176.590012 
	C218.887939,178.277496 219.821564,179.156982 223.858505,184.435257 
	C226.734650,180.807175 227.820511,177.058151 226.710098,172.484039 
	C225.658264,168.151199 222.140869,172.748413 220.621948,170.439865 
	C220.583252,161.854019 227.953583,162.022079 233.421051,159.738831 
	C228.469986,161.308151 223.647766,159.102539 218.633667,160.002869 
	C207.542160,161.994431 202.291519,167.170334 201.261963,178.446106 
	C200.954758,181.810623 200.304413,185.143799 199.790741,188.630890 
	C197.085541,187.721115 197.673782,185.950424 197.714935,184.640839 
	C197.971039,176.489563 198.430923,168.344437 198.659958,160.192703 
	C198.745224,157.158356 200.470993,156.668045 202.910889,156.679169 
	C208.242340,156.703430 213.574142,156.678955 218.905640,156.647888 
	C221.055389,156.635361 223.259308,156.803955 225.673950,154.924973 
	C221.198944,148.881958 226.709198,145.107895 228.930298,140.305862 
	C232.316956,141.569077 231.668701,144.387039 232.059143,146.704819 
	C233.596863,146.698608 234.537003,144.523132 236.219559,145.799713 
	C236.256485,157.139450 236.256485,157.139450 241.798981,155.553955 
	C238.520035,151.589157 238.117126,147.258667 238.488586,142.318054 
	C238.779312,138.451096 234.598846,136.427704 230.992920,135.640884 
	C226.699524,134.704086 226.157669,133.805832 228.776886,129.813370 
	C231.127075,134.902542 236.111496,131.863480 239.658005,133.389297 
	C240.661911,133.821213 242.016632,133.412643 243.048859,133.809692 
	C244.556091,134.389465 245.937500,136.604050 244.727417,137.169067 
	C241.401703,138.721924 243.059891,142.120590 241.285919,144.205109 
	C238.964828,146.932510 239.929779,149.686295 242.483093,152.006516 
	C245.443253,154.696426 246.803757,151.054245 248.921753,150.451996 
	C250.884705,149.893829 250.719910,146.817795 253.005020,146.664169 
	C253.964828,147.140457 253.559509,147.831284 253.623917,148.458344 
	C254.450760,156.507843 254.482742,156.023193 262.789276,156.343735 
	C273.949249,156.774399 285.098663,156.460495 296.249359,156.691360 
	C298.069702,156.729065 300.059235,156.546295 300.401520,159.147079 
	C301.681366,168.871780 301.450378,178.599915 301.049072,188.379379 
	C298.423553,188.273926 298.862518,186.636780 298.712250,185.432816 
	C298.300659,182.135147 298.095520,178.805206 297.543365,175.532822 
	C296.072021,166.812485 290.716461,161.726379 282.012146,160.286118 
	C275.059448,159.135696 268.136658,158.911392 261.225647,160.095337 
	C259.876343,161.816513 260.377106,163.653259 260.447449,165.353790 
	C261.366638,166.569366 262.198364,164.224716 263.060547,165.422363 
	C263.090973,165.744446 263.266266,166.218109 263.118317,166.364014 
	C260.244232,169.198471 260.158752,172.740631 260.248352,176.459183 
	C260.395935,182.583633 260.288422,188.714233 260.288422,194.501038 
	C262.483917,196.009827 263.242126,193.271912 264.891418,193.912766 
	C266.050415,196.933990 262.572784,199.379822 263.730286,202.689941 
	C266.205658,201.346054 265.849060,197.673676 269.153473,196.812973 
	C268.423401,201.849762 262.805023,205.926117 266.703918,211.932205 
	C267.230347,209.219772 268.795776,209.818756 270.649017,210.699539 
	C270.802521,208.681046 270.937164,206.910553 271.071808,205.140060 
	C272.133514,208.078522 274.444885,209.285400 277.614899,209.914902 
	C277.979126,209.977173 278.077820,210.044083 278.207764,210.343460 
	C280.788513,212.801193 283.564148,214.074524 287.180298,213.795395 
	C283.943451,215.627991 282.325714,219.229919 277.845184,219.858246 
	C283.359924,222.482803 286.519470,219.122910 290.011597,217.006226 
	C290.002777,217.001556 289.984619,216.993805 289.984619,216.993805 
	C286.629730,221.705688 288.779053,227.291687 287.199982,232.250305 
	C285.376892,228.616287 284.712646,224.456100 279.526978,222.807220 
	C281.522217,226.935898 281.120392,229.903427 276.560303,231.214813 
	C279.322266,234.888107 282.726379,234.868576 286.243317,234.504272 
	C282.843597,238.813568 279.058899,235.796371 275.367218,234.858170 
	C273.359558,237.337830 275.153687,238.516205 276.741302,239.700912 
	C281.631195,243.349869 285.666809,247.619705 287.299683,254.081497 
	C285.371521,255.247543 283.324890,256.460663 282.651611,259.015625 
	C277.598663,257.380768 275.110321,253.376648 272.086792,249.642807 
	C270.782043,251.536896 269.682404,253.133209 268.302185,254.609161 
	C266.582520,251.529510 266.771423,248.302475 266.433533,245.153137 
	C266.225220,243.211456 264.637482,243.081329 263.084900,242.977264 
	C261.088409,242.843430 260.397552,244.020920 260.371674,245.709320 
	C260.313721,249.491409 260.353546,253.274994 260.353546,257.109772 
	C263.364777,257.463989 265.296509,254.808945 268.016602,254.981461 
M238.678665,198.836365 
	C237.791183,192.570435 239.574646,186.152618 237.876892,178.608185 
	C234.328857,182.821335 234.855484,187.512070 232.364731,190.795410 
	C230.980972,190.836914 231.922485,188.888336 230.280380,188.703796 
	C229.801300,191.309967 225.131195,188.970001 225.047012,193.100403 
	C227.922455,193.962921 230.685928,194.445145 234.563065,194.122070 
	C229.792542,197.763412 231.984467,201.621826 232.695999,205.246338 
	C229.516403,205.252228 229.514755,200.558823 226.088074,201.524048 
	C227.667984,208.864807 233.176605,212.974625 238.684799,217.954071 
	C238.684799,211.580475 238.684799,205.669083 238.678665,198.836365 
M271.319702,233.705856 
	C273.482269,231.154160 275.165344,227.847656 272.898407,225.267654 
	C271.490875,223.665726 268.353729,221.917419 265.373657,223.252380 
	C261.586243,224.949005 259.252625,232.573578 261.918945,235.806015 
	C265.009552,239.552811 267.720917,235.952148 270.449036,234.576233 
	C270.590576,234.504852 270.693054,234.356064 271.319702,233.705856 
M232.416290,177.690399 
	C234.942657,178.750443 236.922150,177.849747 237.409088,175.362534 
	C238.043076,172.124298 238.853958,168.800461 238.381363,164.924973 
	C236.818573,167.093903 235.731064,168.897369 233.775757,169.909027 
	C229.901733,162.313461 229.005188,161.963898 225.502884,166.933716 
	C230.289444,168.840652 228.254883,174.699936 232.416290,177.690399 
M215.751602,185.899597 
	C216.491882,190.661499 220.276413,187.976288 222.574768,188.961563 
	C220.505020,187.701370 219.680695,183.927734 215.751602,185.899597 
M278.488129,251.930328 
	C280.747437,248.620102 277.728119,247.193619 276.066956,245.222229 
	C276.373840,247.173462 278.044800,248.887009 276.600006,251.060989 
	C276.140930,251.751785 276.526947,252.008331 278.488129,251.930328 
z"/>
<path fill="#000000" opacity="1.000000" stroke="none" 
	d="
M219.758606,303.135437 
	C225.191208,302.490601 225.776077,299.694366 221.936310,293.245667 
	C224.894867,292.621216 227.000702,293.752533 227.985519,296.250488 
	C229.373871,299.771973 228.057907,302.733215 224.694748,305.109314 
	C226.656586,308.324219 228.527679,311.390381 230.714401,314.973785 
	C223.333557,316.005066 223.642029,308.124268 219.277969,305.950073 
	C217.435852,309.122101 218.976639,311.878387 219.813446,314.699860 
	C217.947723,315.817200 216.155518,315.242737 214.086533,315.139984 
	C214.782379,307.804565 215.204483,300.615906 213.915588,293.318817 
	C215.368484,292.295166 216.932755,292.700714 218.529785,293.123718 
	C219.966248,296.382172 217.291016,299.902954 219.758606,303.135437 
z"/>
<path fill="#000000" opacity="1.000000" stroke="none" 
	d="
M249.456329,308.186035 
	C250.413177,311.338165 251.379425,314.337799 254.953812,314.076019 
	C258.573914,313.810852 259.594757,310.828613 260.238220,307.738068 
	C261.337250,302.459320 260.248840,297.678131 256.734833,293.284088 
	C262.078796,293.703339 265.136749,297.873779 265.119843,304.195404 
	C265.102020,310.858856 261.220245,315.381592 255.198776,315.754791 
	C249.694427,316.095947 245.914261,312.685974 244.877716,306.444427 
	C243.732407,299.547974 246.600433,294.412628 253.862839,292.643463 
	C248.760132,297.399994 249.110123,302.598267 249.456329,308.186035 
z"/>
<path fill="#000000" opacity="1.000000" stroke="none" 
	d="
M255.871460,140.659760 
	C253.996231,141.378845 252.432404,141.964874 252.389847,144.321167 
	C250.826584,143.158661 249.787079,142.347458 248.707458,141.593643 
	C247.652298,140.856903 246.899811,139.949524 247.647552,138.688934 
	C248.373871,137.464417 249.780243,137.610687 250.795380,138.002029 
	C255.632080,139.866653 259.606659,137.523285 263.172913,135.052277 
	C267.484070,132.065170 274.912476,132.851608 278.260101,137.333099 
	C273.204590,143.267136 270.527893,143.849518 263.789612,140.650482 
	C261.312561,139.474487 258.736938,138.987839 255.871460,140.659760 
z"/>
<path fill="#000000" opacity="1.000000" stroke="none" 
	d="
M283.309113,315.335083 
	C281.577576,315.202728 280.984131,314.806946 281.265900,313.115967 
	C282.361420,306.541870 281.923737,299.922974 281.405365,293.247437 
	C283.132385,292.266998 284.909760,292.662170 286.939484,293.020508 
	C286.001495,300.216797 286.027954,307.398651 286.773224,314.752594 
	C286.022003,315.625549 284.800201,315.307220 283.309113,315.335083 
z"/>
<path fill="#000000" opacity="1.000000" stroke="none" 
	d="
M311.037994,315.043182 
	C314.957489,309.551086 314.866547,309.051514 308.513672,305.354401 
	C305.608002,303.663452 303.343689,301.718750 303.686890,297.942200 
	C303.921204,295.364014 304.935028,293.527802 308.330841,292.919464 
	C305.700714,298.596161 308.584106,301.236908 313.246307,303.170349 
	C316.325348,304.447205 317.777985,307.078644 317.210938,310.460846 
	C316.716187,313.411743 315.121490,315.323914 311.409119,315.056946 
	C311.017944,315.018646 311.037994,315.043182 311.037994,315.043182 
z"/>
<path fill="#000000" opacity="1.000000" stroke="none" 
	d="
M187.606537,298.491882 
	C187.603439,296.574707 187.603439,295.095795 187.603439,293.551819 
	C190.613052,291.882294 191.341507,293.163757 191.396606,296.028473 
	C191.516647,302.267303 190.699356,308.538239 192.109299,314.808655 
	C190.243378,315.716827 188.475449,315.286926 186.200760,315.108887 
	C188.407379,309.691589 187.379639,304.275635 187.606537,298.491882 
z"/>
<path fill="#000000" opacity="1.000000" stroke="none" 
	d="
M277.929993,209.943359 
	C278.072968,204.855209 275.487427,200.873993 272.609497,196.950455 
	C277.625183,198.054062 277.846497,202.786301 280.014709,205.981796 
	C292.618591,206.474014 294.885864,208.755264 290.228455,216.746368 
	C289.984619,216.993805 290.002777,217.001556 289.963470,216.612183 
	C289.718567,209.058578 286.585449,206.686600 280.246155,208.931625 
	C279.487244,209.200378 278.798889,209.668411 278.077820,210.044098 
	C278.077820,210.044083 277.979126,209.977173 277.929993,209.943359 
z"/>
<path fill="#000000" opacity="1.000000" stroke="none" 
	d="
M209.679901,328.964874 
	C210.057098,326.319855 208.600555,322.828156 212.685715,323.033264 
	C215.876495,323.193451 218.528839,324.742859 218.243011,328.653900 
	C218.008881,331.857391 216.150360,333.281281 212.954987,333.304443 
	C210.160065,333.324707 209.668579,331.639801 209.679901,328.964874 
M215.248230,326.103088 
	C211.470749,326.235992 211.113647,327.280548 213.613815,331.481354 
	C215.445450,330.274750 217.344498,329.256683 215.248230,326.103088 
z"/>
<path fill="#000000" opacity="1.000000" stroke="none" 
	d="
M271.508118,331.663330 
	C270.350006,329.127808 270.414398,326.596619 271.144043,324.013550 
	C274.134186,324.038513 274.611084,327.242432 276.867645,327.878601 
	C278.466675,327.152649 276.882507,324.831268 279.074005,324.122437 
	C280.327423,326.976990 280.342468,329.683441 278.817810,332.457977 
	C276.060822,331.998566 275.332245,329.232330 273.175934,328.206421 
	C271.628265,328.894073 272.838104,330.736267 271.508118,331.663330 
z"/>
<path fill="#000000" opacity="1.000000" stroke="none" 
	d="
M225.796844,322.888550 
	C227.450073,322.740082 228.757904,322.442719 229.829376,323.316101 
	C229.559418,325.386566 226.992905,324.560638 226.678802,326.286438 
	C226.687180,327.899658 228.556961,327.371643 229.098694,328.377014 
	C229.213608,329.868317 227.154190,329.560028 227.036133,330.870239 
	C227.679230,332.070862 229.408875,330.840729 229.969711,332.271606 
	C229.893143,332.456329 229.812546,332.935883 229.668289,332.955902 
	C227.625275,333.238953 224.825745,334.338959 224.134460,331.660431 
	C223.411575,328.859436 222.401703,325.473297 225.796844,322.888550 
z"/>
<path fill="#000000" opacity="1.000000" stroke="none" 
	d="
M257.999146,332.363098 
	C255.526855,329.565369 255.259964,326.896088 257.738922,324.566071 
	C259.200928,323.191895 261.138153,321.832428 263.373169,324.030060 
	C257.219696,326.962433 256.877991,328.155151 261.026337,331.408569 
	C262.997833,331.152191 261.032806,328.756439 262.844360,328.311646 
	C263.672058,328.200409 264.334106,328.728241 264.662354,329.523743 
	C265.344330,331.176636 264.896271,332.589264 263.136749,333.093323 
	C261.540222,333.550659 259.839508,333.561737 257.999146,332.363098 
z"/>
<path fill="#000000" opacity="1.000000" stroke="none" 
	d="
M236.658066,121.721718 
	C238.696075,121.211006 240.190247,121.565506 241.488220,123.040192 
	C239.583450,127.289322 235.338959,126.627792 231.446091,128.282547 
	C231.996902,124.651009 234.319870,123.372536 236.658066,121.721718 
z"/>
<path fill="#000000" opacity="1.000000" stroke="none" 
	d="
M237.224487,324.362244 
	C238.603363,323.005829 239.821045,322.248688 241.319321,323.523499 
	C242.063370,325.378082 239.722107,324.770081 239.471725,325.987762 
	C240.513962,327.711182 243.745880,328.421478 242.699768,331.329498 
	C241.929504,333.470703 240.063736,333.459045 238.182343,332.998413 
	C237.830109,331.312744 240.201538,331.810028 239.913910,329.878906 
	C239.466858,328.249634 235.931351,327.671539 237.224487,324.362244 
z"/>
<path fill="#000000" opacity="1.000000" stroke="none" 
	d="
M286.130890,326.521851 
	C286.164886,323.649780 287.631165,322.865967 289.929626,323.047913 
	C291.172577,324.542511 287.424927,326.205872 290.334351,327.543182 
	C291.968658,328.294342 292.788727,329.864014 291.824615,331.673615 
	C290.885162,333.436981 289.246368,333.459534 287.251953,332.915283 
	C287.261963,331.187103 289.609436,332.023590 289.799744,330.488556 
	C289.448792,328.639160 286.904846,328.621002 286.130890,326.521851 
z"/>
<path fill="#000000" opacity="1.000000" stroke="none" 
	d="
M248.995560,125.698120 
	C251.161545,127.985580 255.319000,127.646637 255.483475,132.253433 
	C251.405060,129.736908 247.891281,126.766525 242.574509,126.828606 
	C244.689423,124.027184 246.667313,124.738594 248.995560,125.698120 
z"/>
<path fill="#000000" opacity="1.000000" stroke="none" 
	d="
M311.011414,315.006470 
	C308.182465,316.367249 305.799896,315.477509 303.944519,313.285217 
	C302.713959,311.831207 302.809479,310.233215 305.033997,308.989838 
	C307.005737,310.690369 307.281219,314.166107 310.701782,314.945801 
	C311.037994,315.043182 311.017944,315.018646 311.011414,315.006470 
z"/>
<path fill="#000000" opacity="1.000000" stroke="none" 
	d="
M259.325073,146.281860 
	C258.415649,145.681305 257.721130,145.287643 257.026611,144.893967 
	C260.688904,145.061874 264.399689,145.138016 265.407684,150.185242 
	C263.451782,148.953079 261.495880,147.720901 259.325073,146.281860 
z"/>
</svg>