<svg width="60" height="30" viewBox="0 0 60 84" fill="none" xmlns="http://www.w3.org/2000/svg">
<path d="M36.9393 50.6554C36.8261 51.2884 36.4377 51.6928 35.9202 52.0589C34.4163 53.1227 34.0497 54.3214 34.5313 56.2044C34.9452 57.823 36.1492 58.4214 37.6336 58.6883C38.2373 58.7969 38.923 58.5905 39.4134 59.4517C33.6828 59.4517 27.9522 59.4517 21.9541 59.4517C22.5614 58.5286 23.2147 58.7817 23.7492 58.7221C26.2838 58.4398 27.4683 57.3182 27.3019 54.7801C27.1019 51.7286 27.3895 48.6964 27.3244 45.6565C27.3126 45.1054 27.5325 44.3293 26.6228 44.2692C25.8456 44.2177 25.4333 44.6562 25.0398 45.3862C24.3634 46.6413 23.4248 47.7551 22.4374 49.1532C21.8593 47.8409 22.6094 47.2397 23.0467 46.5907C24.5113 44.4166 24.5598 44.3997 22.9726 42.2903C22.6579 41.872 22.4957 41.5027 22.5721 41.0792C21.7741 40.7142 21.0814 41.1169 20.1681 41.0808C20.972 39.8702 21.9979 39.2222 22.9708 38.3691C22.7187 38.0023 22.4231 37.5723 22.0673 37.0545C24.4968 36.5998 23.0139 35.1543 22.6551 34.3663C21.904 32.7169 20.7152 33.8585 19.7282 34.0811C19.5802 34.7846 20.3112 34.8267 20.3241 35.3882C18.8034 35.3129 18.0034 36.0723 17.7948 37.5005C18.5738 38.1495 19.7335 37.3032 20.1954 38.4034C19.5222 39.0825 18.4506 37.6981 17.9108 38.838C17.8877 39.6052 18.7324 39.2857 18.9787 39.8096C18.8429 39.9329 18.7147 40.1379 18.5397 40.1922C17.9173 40.3851 17.279 40.5052 16.7733 40.9804C16.3665 41.3628 16.1818 41.7615 16.4868 42.2735C16.7636 42.7381 17.1857 42.7094 17.6363 42.5827C18.1442 42.4399 18.6218 42.1296 19.3073 42.2503C19.0075 43.3391 17.6969 42.8529 17.1364 44.032C18.9757 44.5261 20.1446 43.2704 21.5834 42.6707C21.3704 43.9134 20.4676 44.2287 19.5208 44.4875C18.8242 44.6779 18.1058 44.8444 18.0727 45.7677C18.0441 46.5639 18.446 47.1375 19.1376 47.457C19.7808 47.7541 20.306 48.1438 20.5775 48.8687C19.3417 48.4025 18.174 47.9017 17.5421 46.538C16.8836 45.117 16.7079 43.502 15.7242 42.2105C15.3258 41.6874 15.5629 41.118 16.0337 40.7702C16.9503 40.0929 17.2727 39.3715 17.0392 38.1487C16.724 36.498 18.7015 33.6133 20.3412 33.3196C21.3561 33.1379 21.5226 31.6443 22.9937 32.222C22.048 31.4265 21.3369 31.6431 20.6573 32.0209C19.6658 32.5721 18.9926 32.2852 18.5878 31.2848C17.5767 28.7857 17.2664 28.1735 20.1633 26.6476C20.1457 25.8789 18.9366 25.8501 19.0832 25.0124C19.1923 24.3892 19.169 23.7005 19.7028 23.1921C20.6904 23.7861 19.8175 24.4372 19.8038 25.0332C20.8816 25.5848 21.1868 25.8723 22.5063 27.5975C23.4463 26.4116 23.8012 25.1863 23.4383 23.6912C23.0945 22.275 21.9449 23.7776 21.4484 23.0231C21.4358 20.2168 23.8447 20.2717 25.6318 19.5255C24.0135 20.0384 22.4374 19.3175 20.7985 19.6118C17.1733 20.2627 15.4571 21.9544 15.1206 25.6399C15.0202 26.7396 14.8076 27.829 14.6398 28.9688C13.7556 28.6714 13.9478 28.0927 13.9613 27.6646C14.045 25.0004 14.1953 22.3382 14.2702 19.6738C14.298 18.682 14.8621 18.5218 15.6596 18.5254C17.4021 18.5334 19.1448 18.5254 20.8874 18.5152C21.5901 18.5111 22.3104 18.5662 23.0996 17.9521C21.637 15.9769 23.438 14.7434 24.164 13.1738C25.2709 13.5867 25.059 14.5078 25.1866 15.2653C25.6892 15.2633 25.9965 14.5522 26.5465 14.9695C26.5585 18.6759 26.5585 18.6759 28.3701 18.1577C27.2984 16.8618 27.1667 15.4464 27.2881 13.8315C27.3831 12.5676 26.0167 11.9063 24.8381 11.6491C23.4348 11.3429 23.2577 11.0493 24.1138 9.74438C24.882 11.4078 26.5111 10.4145 27.6703 10.9132C27.9984 11.0543 28.4412 10.9208 28.7786 11.0506C29.2712 11.2401 29.7227 11.9639 29.3272 12.1486C28.2402 12.6561 28.7822 13.767 28.2024 14.4483C27.4437 15.3397 27.7591 16.2398 28.5937 16.9982C29.5612 17.8774 30.0059 16.6869 30.6981 16.4901C31.3397 16.3076 31.2859 15.3023 32.0328 15.252C32.3465 15.4077 32.214 15.6335 32.235 15.8385C32.5053 18.4694 32.5157 18.311 35.2307 18.4158C38.8783 18.5566 42.5225 18.454 46.1671 18.5294C46.7621 18.5417 47.4123 18.482 47.5242 19.3321C47.9425 22.5106 47.867 25.6902 47.7359 28.8866C46.8777 28.8521 47.0212 28.317 46.9721 27.9235C46.8376 26.8457 46.7705 25.7573 46.59 24.6877C46.1091 21.8375 44.3587 20.1751 41.5137 19.7043C39.2412 19.3283 36.9785 19.255 34.7196 19.642C34.2786 20.2046 34.4423 20.8049 34.4653 21.3607C34.7657 21.758 35.0376 20.9917 35.3194 21.3831C35.3293 21.4884 35.3866 21.6432 35.3383 21.6909C34.3989 22.6173 34.3709 23.7751 34.4002 24.9905C34.4485 26.9923 34.4133 28.996 34.4133 30.8874C35.1309 31.3806 35.3787 30.4857 35.9178 30.6952C36.2966 31.6826 35.16 32.4821 35.5383 33.564C36.3474 33.1247 36.2308 31.9244 37.3108 31.6431C37.0722 33.2894 35.2359 34.6217 36.5102 36.5848C36.6823 35.6982 37.1939 35.894 37.7997 36.1819C37.8498 35.5221 37.8938 34.9435 37.9378 34.3648C38.2849 35.3252 39.0403 35.7197 40.0764 35.9254C40.1955 35.9458 40.2278 35.9677 40.2702 36.0655C41.1137 36.8688 42.0209 37.285 43.2029 37.1938C42.1449 37.7927 41.6162 38.97 40.1517 39.1754C41.9542 40.0332 42.9869 38.9351 44.1283 38.2432C44.1254 38.2417 44.1195 38.2392 44.1195 38.2392C43.0229 39.7792 43.7254 41.605 43.2093 43.2257C42.6134 42.0379 42.3963 40.6782 40.7014 40.1393C41.3535 41.4887 41.2222 42.4586 39.7318 42.8873C40.6345 44.0879 41.7471 44.0815 42.8966 43.9624C41.7854 45.3709 40.5484 44.3847 39.3418 44.0781C38.6856 44.8886 39.272 45.2737 39.7909 45.6609C41.3892 46.8536 42.7082 48.2492 43.2419 50.3612C42.6117 50.7423 41.9427 51.1388 41.7227 51.9739C40.0711 51.4396 39.2578 50.1308 38.2696 48.9104C37.8431 49.5295 37.4837 50.0513 37.0326 50.5337C36.4705 49.5271 36.5323 48.4723 36.4218 47.443C36.3538 46.8084 35.8348 46.7658 35.3273 46.7318C34.6748 46.6881 34.449 47.0729 34.4405 47.6248C34.4216 48.8609 34.4346 50.0976 34.4346 51.351C35.4188 51.4668 36.0502 50.599 36.9393 50.6554ZM27.3502 32.3044C27.0601 30.2564 27.6431 28.1588 27.0881 25.6929C25.9285 27.0699 26.1006 28.6031 25.2865 29.6763C24.8342 29.6898 25.142 29.0529 24.6052 28.9926C24.4487 29.8444 22.9222 29.0796 22.8947 30.4296C23.8346 30.7116 24.7378 30.8692 26.005 30.7636C24.4458 31.9537 25.1622 33.2149 25.3948 34.3995C24.3555 34.4014 24.355 32.8674 23.235 33.1829C23.7514 35.5822 25.5519 36.9255 27.3522 38.553C27.3522 36.4698 27.3522 34.5377 27.3502 32.3044ZM38.0189 43.7015C38.7257 42.8674 39.2758 41.7867 38.5349 40.9435C38.0748 40.4199 37.0494 39.8484 36.0754 40.2848C34.8375 40.8393 34.0748 43.3314 34.9463 44.3879C35.9564 45.6125 36.8426 44.4357 37.7343 43.9859C37.7806 43.9626 37.8141 43.914 38.0189 43.7015ZM25.3034 25.3929C26.1291 25.7394 26.7761 25.445 26.9352 24.6321C27.1425 23.5736 27.4075 22.4872 27.253 21.2206C26.7422 21.9295 26.3868 22.5189 25.7477 22.8496C24.4815 20.367 24.1884 20.2527 23.0437 21.8771C24.6082 22.5004 23.9432 24.4155 25.3034 25.3929ZM19.8565 28.0761C20.0985 29.6325 21.3355 28.7548 22.0867 29.0769C21.4102 28.665 21.1408 27.4316 19.8565 28.0761ZM40.3619 49.6581C41.1003 48.5762 40.1135 48.1099 39.5705 47.4656C39.6708 48.1033 40.217 48.6634 39.7447 49.374C39.5947 49.5997 39.7209 49.6836 40.3619 49.6581Z" fill="white"/>
<path d="M21.1662 66.3945C22.9418 66.1837 23.133 65.2698 21.878 63.162C22.845 62.9579 23.5333 63.3277 23.8551 64.1442C24.3089 65.2951 23.8788 66.263 22.7796 67.0396C23.4208 68.0904 24.0323 69.0926 24.7471 70.2638C22.3347 70.6009 22.4355 68.0251 21.0091 67.3144C20.407 68.3512 20.9106 69.2521 21.1841 70.1743C20.5743 70.5395 19.9885 70.3517 19.3123 70.3182C19.5397 67.9206 19.6777 65.571 19.2564 63.1859C19.7313 62.8514 20.2426 62.9839 20.7646 63.1222C21.2341 64.1872 20.3597 65.338 21.1662 66.3945Z" fill="white"/>
<path d="M30.8728 68.0454C31.1856 69.0757 31.5014 70.0561 32.6697 69.9705C33.8529 69.8839 34.1866 68.9091 34.3969 67.899C34.7561 66.1736 34.4004 64.6109 33.2518 63.1747C34.9985 63.3118 35.998 64.6749 35.9924 66.7411C35.9866 68.919 34.7179 70.3972 32.7498 70.5192C30.9507 70.6307 29.7151 69.5162 29.3763 67.4762C29.002 65.2221 29.9394 63.5436 32.3131 62.9653C30.6453 64.52 30.7597 66.219 30.8728 68.0454Z" fill="white"/>
<path d="M32.9696 13.2895C32.3567 13.5246 31.8456 13.7161 31.8317 14.4863C31.3207 14.1063 30.981 13.8411 30.6281 13.5948C30.2832 13.354 30.0373 13.0574 30.2817 12.6454C30.5191 12.2451 30.9787 12.2929 31.3105 12.4209C32.8914 13.0303 34.1905 12.2644 35.3561 11.4567C36.7652 10.4804 39.1932 10.7374 40.2873 12.2022C38.6349 14.1417 37.7601 14.3321 35.5577 13.2865C34.748 12.9021 33.9062 12.7431 32.9696 13.2895Z" fill="white"/>
<path d="M41.9376 70.3818C41.3716 70.3386 41.1777 70.2092 41.2698 69.6565C41.6278 67.5078 41.4848 65.3444 41.3153 63.1625C41.8798 62.842 42.4607 62.9712 43.1242 63.0883C42.8176 65.4404 42.8262 67.7878 43.0698 70.1914C42.8243 70.4768 42.4249 70.3727 41.9376 70.3818Z" fill="white"/>
<path d="M51.0008 70.2865C52.2818 68.4914 52.2521 68.3282 50.1757 67.1198C49.226 66.5671 48.4859 65.9315 48.5981 64.6971C48.6746 63.8544 49.006 63.2543 50.1159 63.0554C49.2563 64.9108 50.1987 65.774 51.7225 66.4059C52.7289 66.8232 53.2037 67.6833 53.0184 68.7888C52.8567 69.7533 52.3354 70.3783 51.1221 70.291C50.9942 70.2785 51.0008 70.2865 51.0008 70.2865Z" fill="white"/>
<path d="M10.6574 64.8767C10.6563 64.2501 10.6563 63.7667 10.6563 63.2621C11.64 62.7164 11.8781 63.1353 11.8961 64.0716C11.9354 66.1107 11.6682 68.1604 12.1291 70.2099C11.5192 70.5067 10.9414 70.3662 10.1979 70.308C10.9191 68.5374 10.5832 66.7672 10.6574 64.8767Z" fill="white"/>
<path d="M40.1794 35.9347C40.2262 34.2716 39.3811 32.9704 38.4404 31.688C40.0798 32.0487 40.1521 33.5954 40.8608 34.6399C44.9804 34.8007 45.7214 35.5464 44.1992 38.1582C44.1195 38.2391 44.1254 38.2417 44.1125 38.1144C44.0325 35.6455 43.0084 34.8702 40.9365 35.604C40.6884 35.6919 40.4634 35.8448 40.2277 35.9676C40.2277 35.9676 40.1955 35.9457 40.1794 35.9347Z" fill="white"/>
<path d="M17.872 74.8368C17.9953 73.9723 17.5192 72.831 18.8545 72.8981C19.8974 72.9504 20.7643 73.4569 20.6708 74.7352C20.5943 75.7822 19.9869 76.2476 18.9425 76.2552C18.029 76.2618 17.8683 75.7111 17.872 74.8368ZM19.692 73.9015C18.4573 73.9449 18.3406 74.2863 19.1578 75.6593C19.7565 75.265 20.3772 74.9322 19.692 73.9015Z" fill="white"/>
<path d="M38.0804 75.7188C37.7019 74.8901 37.723 74.0628 37.9614 73.2185C38.9388 73.2267 39.0946 74.2739 39.8322 74.4818C40.3548 74.2445 39.837 73.4858 40.5533 73.2541C40.963 74.1871 40.9679 75.0717 40.4696 75.9786C39.5685 75.8284 39.3303 74.9243 38.6256 74.5889C38.1197 74.8137 38.5151 75.4158 38.0804 75.7188Z" fill="white"/>
<path d="M23.1398 72.8508C23.6801 72.8023 24.1076 72.7051 24.4578 72.9906C24.3696 73.6673 23.5307 73.3973 23.4281 73.9614C23.4308 74.4887 24.0419 74.3161 24.219 74.6447C24.2566 75.1321 23.5834 75.0314 23.5448 75.4596C23.755 75.852 24.3204 75.45 24.5037 75.9177C24.4787 75.978 24.4523 76.1348 24.4052 76.1413C23.7374 76.2338 22.8224 76.5934 22.5964 75.7179C22.3602 74.8024 22.0301 73.6956 23.1398 72.8508Z" fill="white"/>
<path d="M33.6651 75.9476C32.857 75.0332 32.7698 74.1607 33.58 73.3991C34.0579 72.95 34.6911 72.5057 35.4216 73.224C33.4103 74.1824 33.2986 74.5722 34.6545 75.6356C35.2989 75.5518 34.6566 74.7688 35.2487 74.6234C35.5193 74.587 35.7357 74.7595 35.8429 75.0196C36.0658 75.5598 35.9194 76.0215 35.3443 76.1863C34.8225 76.3357 34.2666 76.3394 33.6651 75.9476Z" fill="white"/>
<path d="M26.6897 7.09972C27.3559 6.93279 27.8442 7.04866 28.2685 7.53066C27.6459 8.91948 26.2586 8.70326 24.9862 9.24411C25.1662 8.05715 25.9255 7.63928 26.6897 7.09972Z" fill="white"/>
<path d="M26.8749 73.3325C27.3256 72.8892 27.7236 72.6417 28.2133 73.0584C28.4565 73.6645 27.6912 73.4658 27.6094 73.8638C27.9501 74.4271 29.0064 74.6593 28.6645 75.6097C28.4127 76.3096 27.8029 76.3058 27.188 76.1552C27.0729 75.6043 27.8479 75.7668 27.7539 75.1356C27.6078 74.6031 26.4522 74.4141 26.8749 73.3325Z" fill="white"/>
<path d="M42.8599 74.0383C42.871 73.0996 43.3502 72.8434 44.1015 72.9029C44.5077 73.3914 43.2828 73.9351 44.2338 74.3722C44.7679 74.6177 45.036 75.1307 44.7208 75.7222C44.4138 76.2985 43.8782 76.3059 43.2263 76.128C43.2296 75.5632 43.9968 75.8366 44.059 75.3349C43.9443 74.7304 43.1128 74.7244 42.8599 74.0383Z" fill="white"/>
<path d="M30.7222 8.3995C31.4302 9.14716 32.7891 9.03637 32.8428 10.5421C31.5098 9.71958 30.3613 8.74871 28.6235 8.769C29.3148 7.85336 29.9613 8.08589 30.7222 8.3995Z" fill="white"/>
<path d="M50.9921 70.2744C50.0674 70.7192 49.2887 70.4283 48.6823 69.7118C48.28 69.2366 48.3113 68.7143 49.0383 68.3079C49.6828 68.8637 49.7728 69.9997 50.8909 70.2546C51.0007 70.2864 50.9942 70.2784 50.9921 70.2744Z" fill="white"/>
<path d="M34.0984 15.1272C33.8012 14.9309 33.5742 14.8023 33.3472 14.6736C34.5442 14.7285 35.757 14.7534 36.0865 16.403C35.4472 16.0003 34.8079 15.5976 34.0984 15.1272Z" fill="white"/>
</svg>
